<svg width="16" height="16" viewBox="0 0 16 16" fill="none" xmlns="http://www.w3.org/2000/svg">
<path d="M8 0.5C6.51664 0.5 5.0666 0.939867 3.83323 1.76398C2.59986 2.58809 1.63856 3.75943 1.07091 5.12987C0.50325 6.50032 0.354725 8.00832 0.644114 9.46318C0.933503 10.918 1.64781 12.2544 2.6967 13.3033C3.7456 14.3522 5.08197 15.0665 6.53683 15.3559C7.99168 15.6453 9.49968 15.4968 10.8701 14.9291C12.2406 14.3614 13.4119 13.4001 14.236 12.1668C15.0601 10.9334 15.5 9.48336 15.5 8C15.5 6.01088 14.7098 4.10322 13.3033 2.6967C11.8968 1.29018 9.98913 0.5 8 0.5ZM8 13.65C7.80222 13.65 7.60888 13.5914 7.44443 13.4815C7.27998 13.3716 7.15181 13.2154 7.07612 13.0327C7.00044 12.85 6.98063 12.6489 7.01922 12.4549C7.0578 12.2609 7.15304 12.0827 7.2929 11.9429C7.43275 11.803 7.61093 11.7078 7.80491 11.6692C7.99889 11.6306 8.19996 11.6504 8.38269 11.7261C8.56541 11.8018 8.72159 11.93 8.83147 12.0944C8.94135 12.2589 9 12.4522 9 12.65C9 12.9152 8.89465 13.1696 8.70711 13.3571C8.51957 13.5446 8.26522 13.65 8 13.65ZM9.725 5.2L8.5 10.19C8.47122 10.2959 8.40838 10.3894 8.32118 10.4561C8.23398 10.5228 8.12727 10.5589 8.0175 10.5589C7.90774 10.5589 7.80103 10.5228 7.71383 10.4561C7.62663 10.3894 7.56379 10.2959 7.535 10.19L6.3 5.19C6.23727 4.92911 6.2345 4.65739 6.2919 4.39528C6.3493 4.13316 6.46539 3.88747 6.63142 3.67668C6.79745 3.46589 7.00912 3.29549 7.25049 3.17828C7.49187 3.06108 7.75668 3.00012 8.025 3C8.29261 3.00256 8.55615 3.06578 8.79581 3.18488C9.03546 3.30399 9.24499 3.47589 9.40862 3.68766C9.57226 3.89942 9.68575 4.14553 9.74055 4.40748C9.79534 4.66943 9.79003 4.9404 9.725 5.2Z" fill="#FF4040"/>
</svg>
